<?xml version="1.0" encoding="utf-8"?>
<!-- Generator: Adobe Illustrator 21.1.0, SVG Export Plug-In . SVG Version: 6.00 Build 0)  -->
<svg version="1.1" id="Layer_1" xmlns="http://www.w3.org/2000/svg" xmlns:xlink="http://www.w3.org/1999/xlink" x="0px" y="0px"
	 viewBox="0 0 1709.3 636" style="enable-background:new 0 0 1709.3 636;" xml:space="preserve">
<style type="text/css">
	.st0{fill:#FFFFFF;}
	.st1{display:none;}
	.st2{display:inline;fill:#274653;}
</style>
<path class="st0" d="M550.2,62.1c0,0,6.9,30.7,24.7,67.6l119.8,32.6c0,0-83.1-33.3-87-46.7s127.4,36.5,142.5,68.6l-167.1-38
	c0,0,13.4,27,32.7,53.8l87.2,5.7c0,0-64.5-9.9-71.6-21.7c-7.2-11.8,119.9,3.9,130.7,31.9l-136.1-2c0,0,21.3,29,46.9,53l54-21.3
	c0,0-46.3,10.4-52.1,1.5c-6-9.2,88.6-27.8,97-13l-88.9,42.2c0,0,11.1,10.6,29.3,24l35.6-28.4c0,0-27.8,16.6-33.1,11.5
	c-6-5.7,59.9-44.8,68-33l-60.7,56.5c0,0,11.2,8.3,27.5,16l24-33c0,0-18.6,19.1-24.9,15.4c-6.3-3.7,36.5-48.1,46.6-39.9L756.5,326
	c0,0,9.3,4.4,24.6,8.1l14.2-30.2c0,0-13.7,16.7-17.4,15.1c-6.2-2.7,17.5-48.3,30.1-41.2l-19.4,57.8c0,0,9.9,1.7,19.3,0.5l8.8-23.8
	c0,0-8.5,16.2-10.7,16c-5.9-0.5,5.7-42.9,17-39.4c0,0-3.4,32.1-11.2,53.5c0,0-45.7-3.9-53.5,74.9c0,0,69.5,10.2,81.2-44.3
	s13.6-83.2,13.6-83.2s-32.6-35.1-38.4-49.7c-2.2-5.5-2.4-23.5-2.4-23.5S789,198.1,782.2,191c-7-7.2-17.1-25.2-24.8-31.6
	C713.2,123,550.2,62.1,550.2,62.1z"/>
<path class="st0" d="M1159.1,62.1c0,0-6.9,30.7-24.7,67.6l-119.8,32.6c0,0,83.1-33.3,87-46.7s-127.4,36.5-142.5,68.6l167.1-38
	c0,0-13.4,27-32.7,53.8l-87.2,5.7c0,0,64.5-9.9,71.6-21.7s-119.9,3.9-130.7,31.9l136.1-2c0,0-21.3,29-46.9,53l-54-21.3
	c0,0,46.3,10.4,52.1,1.5c6-9.2-88.6-27.8-97-13l88.9,42.2c0,0-11.1,10.6-29.3,24l-35.6-28.4c0,0,27.8,16.6,33.1,11.5
	c6-5.7-59.9-44.8-68-33l60.7,56.5c0,0-11.2,8.3-27.5,16l-24-33c0,0,18.6,19.1,24.9,15.4c6.3-3.7-36.5-48.1-46.6-39.9l38.6,60.7
	c0,0-9.3,4.4-24.6,8.1L914,303.9c0,0,13.7,16.7,17.4,15.1c6.2-2.7-17.5-48.3-30.1-41.2l19.4,57.8c0,0-9.9,1.7-19.3,0.5l-8.8-23.8
	c0,0,8.5,16.2,10.7,16c5.9-0.5-5.7-42.9-17-39.4c0,0,3.4,32.1,11.2,53.5c0,0,45.7-3.9,53.5,74.9c0,0-69.5,10.2-81.2-44.3
	s-13.6-83.2-13.6-83.2s32.6-35.1,38.4-49.7c2.2-5.5,2.4-23.5,2.4-23.5s23.3-18.5,30.2-25.5c7-7.2,17.1-25.2,24.8-31.6
	C996.1,123,1159.1,62.1,1159.1,62.1z"/>
<path class="st0" d="M876.2,399.9c-13.1-15.3-18.9-72.2-18.9-72.2v109.8H852V327.7c0,0-5.8,57-18.9,72.2
	c-13.1,15.3-31.5,21.6-31.5,21.6l16.2,7.5c0,0,21.1,33.1,36.8,33.1c15.7,0,36.8-33.1,36.8-33.1l16.2-7.5
	C907.7,421.5,889.3,415.2,876.2,399.9z"/>
<polygon class="st0" points="833.8,10.7 854.6,22.8 875.5,10.7 875.5,34.8 896.3,46.8 875.5,58.9 875.5,82.9 854.6,70.9 833.8,82.9 
	833.8,58.9 813,46.8 833.8,34.8 "/>
<polygon class="st0" points="947.1,68.4 960.5,76.1 973.9,68.4 973.9,83.8 987.3,91.6 973.9,99.3 973.9,114.8 960.5,107.1 
	947.1,114.8 947.1,99.3 933.7,91.6 947.1,83.8 "/>
<polygon class="st0" points="735.3,68.4 735.3,83.8 721.9,91.6 735.3,99.3 735.3,114.8 748.7,107.1 762.1,114.8 762.1,99.3 
	775.5,91.6 762.1,83.8 762.1,68.4 748.7,76.1 "/>
<g>
	<g>
		<path d="M2023.2,36.4c0,0,11.1,49.6,39.9,109.2l193.5,52.7c0,0-134.2-53.7-140.6-75.5c-6.4-21.8,205.8,59,230.2,110.9l-270-61.5
			c0,0,21.7,43.6,52.8,86.9l141,9.1c0,0-104.1-16-115.7-35.1c-11.6-19.1,193.7,6.4,211.1,51.5l-220-3.2c0,0,34.4,46.9,75.8,85.6
			l87.3-34.4c0,0-74.8,16.7-84.2,2.4c-9.7-14.9,143.2-44.9,156.7-21l-143.6,68.1c0,0,17.9,17.2,47.3,38.8l57.6-45.9
			c0,0-44.9,26.8-53.5,18.7c-9.7-9.2,96.8-72.3,109.9-53.3l-98.1,91.2c0,0,18.1,13.4,44.4,25.8l38.9-53.3c0,0-30.1,30.8-40.3,24.9
			c-10.2-5.9,58.9-77.7,75.3-64.4l-62.3,98.1c0,0,15.1,7.1,39.7,13.1l22.9-48.8c0,0-22.1,26.9-28.1,24.4
			c-10.1-4.3,28.2-78,48.6-66.6l-31.4,93.4c0,0,16.1,2.7,31.3,0.7l14.1-38.5c0,0-13.8,26.2-17.3,25.9c-9.5-0.8,9.2-69.4,27.5-63.6
			c0,0-5.5,51.9-18.1,86.4c0,0-73.9-6.3-86.4,121c0,0,112.4,16.5,131.2-71.5c18.9-88,22-134.4,22-134.4s-52.7-56.8-62.1-80.3
			c-3.5-8.9-3.9-37.9-3.9-37.9s-37.7-29.8-48.7-41.2c-11.3-11.7-27.6-40.8-40.1-51.1C2286.6,134.8,2023.2,36.4,2023.2,36.4z"/>
		<path d="M3007,36.4c0,0-11.1,49.6-39.9,109.2l-193.5,52.7c0,0,134.2-53.7,140.6-75.5c6.4-21.8-205.8,59-230.2,110.9l270-61.5
			c0,0-21.7,43.6-52.8,86.9l-141,9.1c0,0,104.1-16,115.7-35.1c11.6-19.1-193.7,6.4-211.1,51.5l220-3.2c0,0-34.4,46.9-75.8,85.6
			l-87.3-34.4c0,0,74.8,16.7,84.2,2.4c9.7-14.9-143.2-44.9-156.7-21l143.6,68.1c0,0-17.9,17.2-47.3,38.8l-57.6-45.9
			c0,0,44.9,26.8,53.5,18.7c9.7-9.2-96.8-72.3-109.9-53.3l98.1,91.2c0,0-18.1,13.4-44.4,25.8l-38.9-53.3c0,0,30.1,30.8,40.3,24.9
			s-58.9-77.7-75.3-64.4l62.3,98.1c0,0-15.1,7.1-39.7,13.1L2611,427c0,0,22.1,26.9,28.1,24.4c10.1-4.3-28.2-78-48.6-66.6l31.4,93.4
			c0,0-16.1,2.7-31.3,0.7l-14.1-38.5c0,0,13.8,26.2,17.3,25.9c9.5-0.8-9.2-69.4-27.5-63.6c0,0,5.5,51.9,18.1,86.4
			c0,0,73.9-6.3,86.4,121c0,0-112.4,16.5-131.2-71.5c-18.9-88-22-134.4-22-134.4s52.7-56.8,62.1-80.3c3.5-8.9,3.9-37.9,3.9-37.9
			s37.7-29.8,48.7-41.2c11.3-11.7,27.6-40.8,40.1-51.1C2743.6,134.8,3007,36.4,3007,36.4z"/>
		<path d="M2594.8,209c0,0-9.2,2.3-18-0.4c-8.8-2.7-14.5-21.3-19.6-29.2c-5.1-7.8-13.1-13.3-13.1-13.3s-4.5-22.9-49.5-22.9
			s-40.2,40.9-40.2,40.9s8.5-11.9,21.9-11.9c4,0,5.4,1,5.4,3.4c0,2.1-0.7,3.2-1.8,3.2c-0.9,0-1.7-0.9-1.7-1.7s0.4-1.2,0.4-2
			s-0.3-1.9-2.3-1.9s-3.4,1.8-3.4,4.6s3,5.4,7,5.5c7.9,0.1,8.2-11.6,8.2-11.6c6.4,0.2,12.2,3,12.2,3s-7.5,2.5-10,4.4
			c-2.4,1.9-3.4,7.1-10.4,7.1c-5.8,0-6.3-4.8-12-4.8c-8,0-12.5,6.3-12.5,6.3s1.4,8.1,9.6,13c9.8,5.8,11.5,13,7.8,16.2
			c-3.8,3.3-10.4-3.5-18.6-1.8c3.3-5.7,15.5,3.8,17.4-3.5c1.8-6.8-8.5-6.5-17-17c-2.8-3.5-6.4-9.9-6.4-12.9c0-5,2.4-8.7,2.4-8.7
			h-12.9l1.2,5.2l-1.5,0.7l0.1-1.6c0-0.4-0.1-0.8-0.4-1l-2.7-2.3c-0.3-0.2-0.6-0.3-0.9-0.3c-3.8,0.6-26.6,4.7-31,19.7
			c-4.8,16.3,10.5,25.9,10.5,25.9s-2.1-13.3,5.4-16.8c14.1-6.6,46.2,3.1,46.2,5.9s-14.9-3.3-33.2-3.3c-18.4,0-14.5,14.2-14.5,14.2
			s18.9-10.9,42.5,10.4s-5.2,56.2-5.2,56.2s-0.9,27.5,2.4,35.9c8.5,22.3,59,75.1,59,75.1l0,0l0,0c0,0,50.5-52.8,59-75.1
			c3.2-8.4,2.3-35.9,2.3-35.9l-15.7-55.4C2570,227.9,2594.8,209,2594.8,209z"/>
		<path d="M2550,582.1c-21.1-24.7-30.5-116.7-30.5-116.7v177.4h-8.6V465.4c0,0-9.4,92-30.5,116.7c-21.1,24.7-50.9,34.8-50.9,34.8
			l26.2,12.1c0,0,34.1,53.5,59.5,53.5s59.5-53.5,59.5-53.5l26.2-12.1C2600.9,617,2571.1,606.8,2550,582.1z"/>
	</g>
	<g>
		<polygon points="2481.5,-46.6 2515.1,-27.2 2548.8,-46.6 2548.8,-7.8 2582.5,11.7 2548.8,31.1 2548.8,70 2515.1,50.5 2481.5,70 
			2481.5,31.1 2447.8,11.7 2481.5,-7.8 		"/>
		<polygon points="2664.6,46.5 2686.2,59 2707.9,46.5 2707.9,71.5 2729.5,84 2707.9,96.5 2707.9,121.5 2686.2,109 2664.6,121.5 
			2664.6,96.5 2642.9,84 2664.6,71.5 		"/>
		<polygon points="2322.4,46.5 2322.4,71.5 2300.7,84 2322.4,96.5 2322.4,121.5 2344,109 2365.7,121.5 2365.7,96.5 2387.3,84 
			2365.7,71.5 2365.7,46.5 2344,59 		"/>
	</g>
</g>
<g class="st1">
	<polygon class="st2" points="2261.1,1427.7 2261.1,1455.2 2284.9,1469 2261.1,1482.8 2261.1,1510.3 2237.2,1496.6 2213.4,1510.3 
		2213.4,1482.8 2189.5,1469 2213.4,1455.2 2213.4,1427.7 2237.2,1441.5 	"/>
	<polygon class="st2" points="2362.4,1487.5 2362.4,1505.9 2378.4,1515.2 2362.4,1524.4 2362.4,1542.8 2346.5,1533.6 2330.5,1542.8 
		2330.5,1524.4 2314.6,1515.2 2330.5,1505.9 2330.5,1487.5 2346.5,1496.7 	"/>
	<polygon class="st2" points="2112,1487.5 2112,1505.9 2096.1,1515.2 2112,1524.4 2112,1542.8 2128,1533.6 2144,1542.8 2144,1524.4 
		2159.9,1515.2 2144,1505.9 2144,1487.5 2128,1496.7 	"/>
</g>
<text transform="matrix(1 0 0 1 -3.0329 811.7005)" style="font-family:'TimesNewRomanPS-BoldMT'; font-size:161.6975px;">Servicios Liberty, LLC</text>
<g>
	<path class="st0" d="M86.3,501.4l0.9,35.7h-3.2c-1.5-8.9-5.3-16.1-11.3-21.6c-6-5.4-12.4-8.2-19.4-8.2c-5.4,0-9.6,1.4-12.8,4.3
		c-3.1,2.9-4.7,6.2-4.7,9.9c0,2.4,0.6,4.5,1.7,6.3c1.5,2.5,4,4.9,7.3,7.3c2.5,1.7,8.2,4.8,17.1,9.2c12.5,6.2,21,12,25.3,17.4
		c4.3,5.5,6.5,11.7,6.5,18.8c0,8.9-3.5,16.6-10.5,23.1c-7,6.4-15.8,9.7-26.6,9.7c-3.4,0-6.6-0.3-9.6-1c-3-0.7-6.8-2-11.3-3.9
		c-2.5-1.1-4.6-1.6-6.2-1.6c-1.4,0-2.8,0.5-4.3,1.6c-1.5,1.1-2.8,2.7-3.7,4.8h-2.9v-40.4h2.9c2.3,11.4,6.8,20,13.4,26
		c6.6,6,13.7,9,21.4,9c5.9,0,10.6-1.6,14.1-4.8c3.5-3.2,5.3-6.9,5.3-11.2c0-2.5-0.7-5-2-7.3c-1.3-2.4-3.4-4.6-6.1-6.8
		c-2.7-2.1-7.6-4.9-14.5-8.3c-9.7-4.8-16.7-8.9-21-12.2c-4.3-3.4-7.5-7.1-9.8-11.3c-2.3-4.2-3.4-8.7-3.4-13.7
		c0-8.5,3.1-15.8,9.4-21.8c6.3-6,14.2-9,23.7-9c3.5,0,6.8,0.4,10.1,1.3c2.5,0.6,5.5,1.8,9,3.5c3.6,1.7,6,2.6,7.5,2.6
		c1.4,0,2.4-0.4,3.2-1.3c0.8-0.8,1.5-2.9,2.2-6.1H86.3z"/>
	<path class="st0" d="M134.5,568h2.8c2.2,0,4.1-0.2,5.9-0.6c1.8-0.4,3.4-1.2,4.7-2.4c1.3-1.2,2.4-2.7,3.2-4.7c0.8-2,1.3-4.5,1.5-7.6
		h3v35.5h-3c-0.6-5.2-2.1-8.9-4.7-11.1c-2.5-2.3-5.8-3.4-9.8-3.4h-3.7v22.7c0,1.8,0.1,3.3,0.3,4.4c0.2,1.1,0.6,2,1.2,2.6
		c0.6,0.6,1.4,1.1,2.4,1.3c1,0.2,2.3,0.4,3.9,0.4h4.4c3.2,0,6.1-0.4,8.8-1.1c2.6-0.7,5-1.9,7.1-3.4c2.1-1.5,4-3.5,5.7-5.9
		c1.7-2.4,3.1-5.2,4.5-8.5h2.8l-3.6,24.7h-70.7v-2.8c2.6,0,4.6-0.2,6.2-0.6c1.6-0.4,2.7-1.1,3.6-1.9c0.8-0.9,1.3-1.9,1.6-3.2
		c0.2-1.3,0.4-2.8,0.4-4.5v-51.9c0-1.8-0.2-3.3-0.5-4.5c-0.3-1.2-0.9-2.3-1.8-3c-0.9-0.8-2.1-1.4-3.6-1.7c-1.5-0.4-3.5-0.6-5.8-0.6
		v-2.8H170v22.2h-2.8c-0.6-2.5-1.4-4.8-2.5-6.9c-1.1-2.1-2.5-3.8-4.1-5.3c-1.7-1.4-3.7-2.6-6.1-3.4c-2.4-0.8-5.2-1.2-8.4-1.2h-11.5
		V568z"/>
	<path class="st0" d="M210.5,597.6c0,2.3,0.2,4.1,0.6,5.4c0.4,1.3,1,2.4,1.9,3.1c0.9,0.7,2,1.2,3.5,1.5c1.4,0.3,3.3,0.4,5.5,0.6v2.8
		h-43.7v-2.8c2.1,0,3.8-0.1,5.2-0.4c1.4-0.3,2.5-0.8,3.3-1.6c0.8-0.8,1.4-1.8,1.8-3.2c0.3-1.3,0.5-3.1,0.5-5.2v-52.5
		c0-1.7-0.1-3.2-0.4-4.3c-0.3-1.2-0.9-2.1-1.7-2.8c-0.8-0.7-2-1.3-3.4-1.6c-1.4-0.3-3.3-0.5-5.6-0.5v-2.8h43.5
		c5.8,0,10.9,0.5,15.1,1.5c4.2,1,7.7,2.4,10.5,4.3c2.8,1.8,4.8,4.1,6.1,6.7c1.3,2.6,2,5.5,2,8.7c0,4.7-1.5,8.6-4.6,11.7
		s-7.4,5.5-13,7.3l18.2,25.9c4.2,5.7,8.3,8.7,12.4,8.8v2.8h-30.6l-21.9-33.8h-4.9V597.6z M210.5,571.2h4c3.4,0,6.2-0.5,8.5-1.4
		c2.3-0.9,4.1-2.2,5.5-3.8c1.4-1.6,2.4-3.4,3-5.4c0.6-2,0.9-4.1,0.9-6.2c0-4.9-1.4-8.7-4.3-11.3c-2.9-2.7-7.4-4-13.7-4h-3.9V571.2z"
		/>
	<path class="st0" d="M347.1,536c-2.7,0-5.3,1.3-7.8,3.9c-2.4,2.6-4.8,6.6-7.1,11.9l-25.6,61.3H303l-28.7-69.4c-1.2-3-2.6-5-4.3-6.1
		c-1.6-1.1-3.7-1.6-6.3-1.6v-2.8h41.1v2.8c-3,0-5.3,0.4-7,1.3c-1.7,0.9-2.5,2-2.5,3.3c0,0.7,0.1,1.3,0.2,1.9
		c0.2,0.6,0.4,1.4,0.9,2.4l16.2,38.5l14.7-34.4c0.7-1.7,1.3-3.2,1.6-4.5c0.3-1.3,0.5-2.4,0.5-3.3c0-1.7-0.8-3-2.4-3.8
		c-1.6-0.9-4-1.4-7.1-1.5v-2.8h27.3V536z"/>
	<path class="st0" d="M393.2,610.9h-43.4v-2.8c2.1,0,3.9-0.1,5.3-0.4c1.4-0.2,2.5-0.7,3.4-1.5c0.8-0.7,1.4-1.8,1.8-3.2
		c0.4-1.4,0.6-3.2,0.6-5.4v-51.2c0-2.4-0.2-4.2-0.6-5.6c-0.4-1.4-1-2.4-1.9-3.2c-0.9-0.7-2-1.2-3.4-1.4c-1.4-0.2-3.1-0.3-5-0.3v-2.8
		h43.4v2.8c-2.1,0-3.8,0.1-5.2,0.3c-1.4,0.2-2.5,0.7-3.4,1.4c-0.9,0.7-1.5,1.8-1.9,3.2c-0.4,1.4-0.6,3.2-0.6,5.6v51.2
		c0,2.2,0.2,4,0.5,5.3c0.3,1.3,0.9,2.4,1.7,3.1c0.8,0.7,2,1.2,3.4,1.5c1.4,0.3,3.2,0.4,5.4,0.4V610.9z"/>
	<path class="st0" d="M476.1,559.9h-3.1c-0.6-3-1.7-5.9-3.2-8.6c-1.5-2.8-3.3-5.2-5.3-7.3c-2.1-2.1-4.4-3.8-7.1-5
		c-2.6-1.3-5.4-1.9-8.4-1.9c-4.1,0-7.6,0.9-10.7,2.6c-3.1,1.7-5.6,4.2-7.6,7.3c-2,3.1-3.6,6.9-4.6,11.2c-1,4.3-1.5,9.1-1.5,14.2
		c0,10.7,2,19.1,6.1,24.9c4.1,5.9,10,8.8,17.8,8.8c2.6,0,5-0.3,7.3-0.8c2.3-0.5,4.4-1.3,6.6-2.4c2.1-1.1,4.1-2.5,6.1-4.1
		c2-1.7,4-3.6,6-5.9v7.1c-4.2,4.3-8.6,7.4-13.4,9.4c-4.8,2-10.2,3-16.2,3c-6.9,0-13.1-0.9-18.6-2.8c-5.4-1.9-10-4.6-13.8-8
		c-3.8-3.4-6.6-7.5-8.6-12.3c-1.9-4.8-2.9-10.1-2.9-15.9c0-5.9,1.1-11.4,3.2-16.5c2.1-5.1,5-9.5,8.8-13.3c3.8-3.8,8.2-6.7,13.4-8.9
		c5.2-2.2,10.8-3.2,17-3.2c3.7,0,6.9,0.3,9.4,0.8c2.5,0.5,4.7,1,6.5,1.6c1.8,0.6,3.3,1.1,4.5,1.6c1.2,0.5,2.4,0.8,3.6,0.8
		c1.4,0,2.6-0.3,3.6-1c0.9-0.7,1.6-1.9,2.1-3.6h3.1V559.9z"/>
	<path class="st0" d="M526.4,610.9H483v-2.8c2.1,0,3.9-0.1,5.3-0.4c1.4-0.2,2.5-0.7,3.4-1.5c0.8-0.7,1.4-1.8,1.8-3.2
		c0.4-1.4,0.6-3.2,0.6-5.4v-51.2c0-2.4-0.2-4.2-0.6-5.6c-0.4-1.4-1-2.4-1.9-3.2c-0.9-0.7-2-1.2-3.4-1.4c-1.4-0.2-3.1-0.3-5-0.3v-2.8
		h43.4v2.8c-2.1,0-3.8,0.1-5.2,0.3c-1.4,0.2-2.5,0.7-3.4,1.4c-0.9,0.7-1.5,1.8-1.9,3.2c-0.4,1.4-0.6,3.2-0.6,5.6v51.2
		c0,2.2,0.2,4,0.5,5.3c0.3,1.3,0.9,2.4,1.7,3.1c0.8,0.7,2,1.2,3.4,1.5c1.4,0.3,3.2,0.4,5.4,0.4V610.9z"/>
	<path class="st0" d="M622.7,572.3c0,5.5-1,10.7-3,15.6c-2,4.9-4.9,9.3-8.8,13c-3.8,3.7-8.5,6.7-14,8.8c-5.5,2.2-11.7,3.3-18.7,3.3
		c-6.7,0-12.8-1-18.3-3c-5.4-2-10.1-4.8-13.9-8.4c-3.8-3.6-6.8-7.9-8.9-12.9c-2.1-5-3.2-10.5-3.2-16.5c0-5.9,1.1-11.4,3.2-16.5
		c2.2-5,5.2-9.4,9.1-13c3.9-3.6,8.6-6.5,14-8.5c5.4-2,11.3-3,17.8-3c6,0,11.7,0.9,17.1,2.8c5.4,1.8,10.1,4.5,14.2,8
		c4.1,3.5,7.3,7.8,9.7,12.9C621.5,560,622.7,565.8,622.7,572.3z M598.9,572.9c0-6.1-0.5-11.4-1.5-16c-1-4.6-2.4-8.3-4.3-11.3
		c-1.8-3-4-5.2-6.6-6.7c-2.6-1.5-5.3-2.2-8.3-2.2c-2.5,0-5,0.6-7.5,1.8c-2.5,1.2-4.7,3.2-6.7,5.9c-2,2.7-3.6,6.3-4.8,10.8
		c-1.2,4.5-1.9,10-1.9,16.5c0,4.3,0.3,8.5,1,12.8c0.7,4.3,1.8,8.1,3.4,11.5c1.6,3.4,3.7,6.2,6.4,8.4c2.7,2.2,6,3.2,9.9,3.2
		c3.3,0,6.2-0.8,8.8-2.4c2.6-1.6,4.8-4,6.6-7c1.8-3,3.2-6.7,4.1-10.9C598.4,583,598.9,578.2,598.9,572.9z"/>
	<path class="st0" d="M634,555.6c0-3.5,0.7-6.7,2-9.7c1.3-3,3.2-5.6,5.6-7.7c2.4-2.2,5.3-3.9,8.6-5.1c3.3-1.2,7-1.8,11-1.8
		c3.3,0,6.1,0.3,8.6,0.9c2.5,0.6,4.6,1.2,6.5,1.9c1.8,0.7,3.4,1.3,4.7,1.9c1.3,0.6,2.5,0.9,3.5,0.9c1.3,0,2.3-0.6,3.1-1.7
		c0.7-1.2,1.1-2.4,1.1-3.8h3.1v27h-3.1c-0.9-3-2.2-5.8-3.9-8.5c-1.6-2.7-3.5-5-5.7-7c-2.2-2-4.6-3.5-7.3-4.7
		c-2.7-1.2-5.6-1.7-8.7-1.7c-4.5,0-7.8,1-10.1,3c-2.2,2-3.4,4.7-3.4,8c0,2.3,0.7,4.2,2.1,5.7c1.4,1.6,3.2,2.9,5.4,4
		c2.2,1.1,4.7,2.2,7.5,3.1c2.8,0.9,5.6,2,8.6,3c2.9,1.1,5.8,2.3,8.5,3.6c2.8,1.3,5.2,3,7.3,5c1.5,1.4,2.6,2.8,3.5,4.1
		c0.9,1.4,1.5,2.8,2,4.1c0.5,1.4,0.8,2.7,0.9,4.1c0.1,1.3,0.2,2.7,0.2,4c0,3.5-0.7,6.8-2,9.8c-1.3,3-3.3,5.6-5.8,7.9
		c-2.6,2.2-5.8,3.9-9.5,5.2c-3.8,1.3-8.1,1.9-13.1,1.9c-3.3,0-6.2-0.3-8.6-0.8c-2.4-0.5-4.5-1.1-6.3-1.7c-1.8-0.6-3.3-1.2-4.6-1.7
		c-1.3-0.5-2.5-0.8-3.6-0.8c-1.3,0-2.4,0.4-3.2,1.3c-0.8,0.8-1.6,2.1-2.3,3.8h-2.9v-29.8h3.1c0.9,3.7,2.2,7.1,3.9,10.1
		c1.7,3,3.8,5.6,6.2,7.7c2.4,2.1,5.1,3.7,8.1,4.9c3,1.2,6.3,1.7,9.8,1.7c5,0,8.6-1,10.8-3c2.2-2,3.3-4.5,3.3-7.7
		c0-2.5-0.6-4.6-1.9-6.4c-1.3-1.7-3-3.2-5.1-4.5c-2.1-1.3-4.5-2.4-7.2-3.4c-2.7-1-5.4-2-8.3-3c-2.8-1.1-5.6-2.2-8.3-3.5
		c-2.7-1.3-5.1-2.8-7.2-4.7c-2.1-1.8-3.8-4.1-5.1-6.6C634.7,562.4,634,559.3,634,555.6z"/>
	<path class="st0" d="M843,573.3l-4,37.6h-95.1v-2.9h3.6c3.1,0,5.6-0.6,7.5-1.7c1.4-0.7,2.4-2,3.2-3.8c0.6-1.3,0.9-4.6,0.9-9.9
		v-70.4c0-5.5-0.3-8.9-0.9-10.3c-0.6-1.4-1.8-2.6-3.5-3.6c-1.8-1-4.1-1.5-7.1-1.5h-3.6v-2.9H801v2.9h-4.7c-3.1,0-5.6,0.6-7.5,1.7
		c-1.4,0.7-2.4,2-3.2,3.8c-0.6,1.3-0.9,4.6-0.9,9.9v68.2c0,5.5,0.3,9,0.9,10.5s1.9,2.6,3.7,3.4c1.3,0.5,4.5,0.7,9.6,0.7h8.9
		c5.7,0,10.4-1,14.2-3c3.8-2,7.1-5.2,9.8-9.5c2.8-4.3,5.4-10.7,7.9-19.1H843z"/>
	<path class="st0" d="M894,610.9h-43.4v-2.8c2.1,0,3.9-0.1,5.3-0.4c1.4-0.2,2.5-0.7,3.4-1.5c0.8-0.7,1.4-1.8,1.8-3.2
		c0.4-1.4,0.6-3.2,0.6-5.4v-51.2c0-2.4-0.2-4.2-0.6-5.6c-0.4-1.4-1-2.4-1.9-3.2c-0.9-0.7-2-1.2-3.4-1.4c-1.4-0.2-3.1-0.3-5-0.3v-2.8
		H894v2.8c-2.1,0-3.8,0.1-5.2,0.3c-1.4,0.2-2.5,0.7-3.4,1.4c-0.9,0.7-1.5,1.8-1.9,3.2c-0.4,1.4-0.6,3.2-0.6,5.6v51.2
		c0,2.2,0.2,4,0.5,5.3c0.3,1.3,0.9,2.4,1.7,3.1c0.8,0.7,2,1.2,3.4,1.5c1.4,0.3,3.2,0.4,5.4,0.4V610.9z"/>
	<path class="st0" d="M940.4,533.3c3.9,0,7.7,0.4,11.3,1.1c3.6,0.7,6.7,1.9,9.4,3.4c2.7,1.5,4.9,3.5,6.5,5.9
		c1.6,2.4,2.4,5.3,2.4,8.6c0,4.5-1.6,8.3-4.8,11.4c-3.2,3.1-7.9,5.2-14,6.4v0.2c6.9,0.9,12.3,3.1,16.3,6.4c3.9,3.3,5.9,7.7,5.9,13.2
		c0,3.1-0.7,5.9-2.2,8.5c-1.5,2.6-3.6,4.8-6.3,6.7c-2.7,1.9-6,3.3-9.9,4.4c-3.9,1.1-8.2,1.6-12.9,1.6h-44.3v-2.8
		c1.9,0,3.6-0.1,5-0.4c1.4-0.3,2.5-0.8,3.4-1.5c0.9-0.7,1.5-1.8,1.9-3.1c0.4-1.3,0.6-3.1,0.6-5.3v-51.2c0-2.3-0.2-4.1-0.6-5.4
		c-0.4-1.4-1-2.4-1.9-3.2c-0.9-0.8-2-1.3-3.5-1.5c-1.4-0.2-3.2-0.4-5.3-0.4v-2.8H940.4z M930,567.7h2.9c2.5,0,4.7-0.4,6.6-1.1
		c1.8-0.8,3.4-1.8,4.5-3.2c1.2-1.3,2.1-2.9,2.6-4.7c0.6-1.8,0.8-3.7,0.8-5.7c0-2.1-0.3-3.9-0.8-5.6c-0.5-1.7-1.3-3.1-2.3-4.4
		c-1.1-1.2-2.4-2.2-4-2.9c-1.6-0.7-3.5-1-5.6-1H930V567.7z M930,597.3c0,3.1,0.5,5.2,1.5,6.4c1,1.1,2.7,1.7,5.1,1.7
		c4.1,0,7.3-1.2,9.6-3.6c2.3-2.4,3.4-6.1,3.4-11.1c0-5.4-1.5-9.6-4.4-12.6c-2.9-3-7.1-4.5-12.6-4.5H930V597.3z"/>
	<path class="st0" d="M1011.4,568h2.8c2.2,0,4.1-0.2,5.9-0.6c1.8-0.4,3.4-1.2,4.7-2.4c1.3-1.2,2.4-2.7,3.2-4.7
		c0.8-2,1.3-4.5,1.5-7.6h3v35.5h-3c-0.6-5.2-2.1-8.9-4.7-11.1c-2.5-2.3-5.8-3.4-9.8-3.4h-3.7v22.7c0,1.8,0.1,3.3,0.3,4.4
		c0.2,1.1,0.6,2,1.2,2.6c0.6,0.6,1.4,1.1,2.4,1.3c1,0.2,2.3,0.4,3.9,0.4h4.4c3.2,0,6.1-0.4,8.8-1.1c2.6-0.7,5-1.9,7.1-3.4
		c2.1-1.5,4-3.5,5.7-5.9c1.7-2.4,3.1-5.2,4.5-8.5h2.8l-3.6,24.7h-70.7v-2.8c2.6,0,4.6-0.2,6.2-0.6c1.6-0.4,2.7-1.1,3.6-1.9
		c0.8-0.9,1.3-1.9,1.6-3.2c0.2-1.3,0.4-2.8,0.4-4.5v-51.9c0-1.8-0.2-3.3-0.5-4.5c-0.3-1.2-0.9-2.3-1.8-3c-0.9-0.8-2.1-1.4-3.6-1.7
		c-1.5-0.4-3.5-0.6-5.8-0.6v-2.8h68.6v22.2h-2.8c-0.6-2.5-1.4-4.8-2.5-6.9c-1.1-2.1-2.5-3.8-4.1-5.3c-1.7-1.4-3.7-2.6-6.1-3.4
		c-2.4-0.8-5.2-1.2-8.4-1.2h-11.5V568z"/>
	<path class="st0" d="M1087.4,597.6c0,2.3,0.2,4.1,0.6,5.4c0.4,1.3,1,2.4,1.9,3.1c0.9,0.7,2,1.2,3.5,1.5c1.4,0.3,3.3,0.4,5.5,0.6
		v2.8h-43.7v-2.8c2.1,0,3.8-0.1,5.2-0.4c1.4-0.3,2.5-0.8,3.3-1.6c0.8-0.8,1.4-1.8,1.8-3.2c0.3-1.3,0.5-3.1,0.5-5.2v-52.5
		c0-1.7-0.1-3.2-0.4-4.3c-0.3-1.2-0.9-2.1-1.7-2.8c-0.8-0.7-2-1.3-3.4-1.6c-1.4-0.3-3.3-0.5-5.6-0.5v-2.8h43.5
		c5.8,0,10.9,0.5,15.1,1.5c4.2,1,7.7,2.4,10.5,4.3c2.8,1.8,4.8,4.1,6.1,6.7c1.3,2.6,2,5.5,2,8.7c0,4.7-1.5,8.6-4.6,11.7
		c-3.1,3.1-7.4,5.5-13,7.3l18.2,25.9c4.2,5.7,8.3,8.7,12.4,8.8v2.8h-30.6l-21.9-33.8h-4.9V597.6z M1087.4,571.2h4
		c3.4,0,6.2-0.5,8.5-1.4c2.3-0.9,4.1-2.2,5.5-3.8s2.4-3.4,3-5.4c0.6-2,0.9-4.1,0.9-6.2c0-4.9-1.4-8.7-4.3-11.3
		c-2.9-2.7-7.4-4-13.7-4h-3.9V571.2z"/>
	<path class="st0" d="M1214,556.7h-3.1c-0.2-2.2-0.7-4.4-1.4-6.5c-0.7-2.1-1.8-4-3.2-5.6c-1.4-1.6-3.1-2.9-5.1-3.9
		c-2-1-4.4-1.5-7.1-1.5h-5.6v57.6c0,2.1,0.1,3.9,0.4,5.3c0.3,1.4,0.9,2.6,1.7,3.6s2,1.6,3.6,2c1.5,0.4,3.5,0.6,5.9,0.6v2.8h-44.8
		v-2.8c2.1,0,3.8-0.1,5.3-0.4c1.5-0.3,2.7-0.8,3.6-1.7c0.9-0.8,1.6-1.9,2.1-3.4c0.4-1.4,0.7-3.3,0.7-5.6v-57.9h-6.6
		c-2.5,0-4.7,0.5-6.6,1.6c-1.9,1.1-3.5,2.5-4.8,4.2c-1.3,1.7-2.3,3.6-3,5.7c-0.7,2.1-1.2,4.1-1.4,6.1h-3.1v-23.4h72.6V556.7z"/>
	<path class="st0" d="M1278.9,547.3c0.9-1.5,1.5-2.7,1.7-3.7c0.2-1,0.4-1.9,0.4-2.8c0-1.5-0.6-2.6-1.8-3.5c-1.2-0.9-3.4-1.3-6.6-1.3
		v-2.8h27.2v2.8c-2.2,0.2-4.6,1.3-7.2,3.6c-2.6,2.2-5.4,5.6-8.4,10.2l-14.8,22.8v24.6c0,2.3,0.2,4.1,0.5,5.5c0.3,1.4,1,2.5,1.9,3.3
		c0.9,0.8,2.2,1.3,3.8,1.6c1.6,0.3,3.6,0.5,6.1,0.5v2.8h-46v-2.8c2.6-0.1,4.7-0.3,6.3-0.7c1.6-0.4,2.8-1.1,3.7-2
		c0.9-0.9,1.5-2,1.8-3.4c0.3-1.4,0.5-3,0.5-4.9v-19.3l-18.9-32.8c-1.6-2.9-3.3-5.1-4.9-6.7c-1.7-1.6-3.8-2.3-6.3-2.3v-2.8h40v2.8
		c-1.7,0-3,0.1-4,0.3c-1,0.2-1.8,0.5-2.3,0.8c-0.5,0.3-0.8,0.7-0.9,1.1c-0.1,0.4-0.2,0.8-0.2,1.2c0,0.6,0.1,1.2,0.3,1.9
		c0.2,0.7,0.7,1.5,1.3,2.4l14.1,23.4L1278.9,547.3z"/>
	<path class="st0" d="M1294.2,639.2v-3.5c6.1-2.6,10.5-6,13.3-10.2c2.8-4.2,4.1-8.5,4.1-12.8c0-0.9-0.2-1.6-0.6-2.1
		c-0.4-0.4-0.7-0.6-1.1-0.6c-0.3,0-0.8,0.2-1.4,0.6c-1.5,0.9-3.4,1.3-5.7,1.3c-3.1,0-5.8-1.2-8.1-3.6c-2.3-2.4-3.4-5.3-3.4-8.5
		c0-3.5,1.3-6.5,3.9-9.2c2.6-2.6,5.8-3.9,9.6-3.9c4.5,0,8.4,1.8,11.6,5.3c3.2,3.5,4.8,8.3,4.8,14.4c0,7.5-2.3,14.2-6.8,20.1
		C1309.9,632.2,1303.1,636.5,1294.2,639.2z"/>
	<path class="st0" d="M1469.1,573.3l-4,37.6H1370v-2.9h3.6c3.1,0,5.6-0.6,7.5-1.7c1.4-0.7,2.4-2,3.2-3.8c0.6-1.3,0.9-4.6,0.9-9.9
		v-70.4c0-5.5-0.3-8.9-0.9-10.3c-0.6-1.4-1.8-2.6-3.5-3.6c-1.8-1-4.1-1.5-7.1-1.5h-3.6v-2.9h57.1v2.9h-4.7c-3.1,0-5.6,0.6-7.5,1.7
		c-1.4,0.7-2.4,2-3.2,3.8c-0.6,1.3-0.9,4.6-0.9,9.9v68.2c0,5.5,0.3,9,0.9,10.5s1.9,2.6,3.7,3.4c1.3,0.5,4.5,0.7,9.6,0.7h8.9
		c5.7,0,10.4-1,14.2-3c3.8-2,7.1-5.2,9.8-9.5c2.8-4.3,5.4-10.7,7.9-19.1H1469.1z"/>
	<path class="st0" d="M1576.9,573.3l-4,37.6h-95.1v-2.9h3.6c3.1,0,5.6-0.6,7.5-1.7c1.4-0.7,2.4-2,3.2-3.8c0.6-1.3,0.9-4.6,0.9-9.9
		v-70.4c0-5.5-0.3-8.9-0.9-10.3c-0.6-1.4-1.8-2.6-3.5-3.6c-1.8-1-4.1-1.5-7.1-1.5h-3.6v-2.9h57.1v2.9h-4.7c-3.1,0-5.6,0.6-7.5,1.7
		c-1.4,0.7-2.4,2-3.2,3.8c-0.6,1.3-0.9,4.6-0.9,9.9v68.2c0,5.5,0.3,9,0.9,10.5s1.9,2.6,3.7,3.4c1.3,0.5,4.5,0.7,9.6,0.7h8.9
		c5.7,0,10.4-1,14.2-3c3.8-2,7.1-5.2,9.8-9.5c2.8-4.3,5.4-10.7,7.9-19.1H1576.9z"/>
	<path class="st0" d="M1690.6,501.4v37.1h-3.1c-2.3-9.7-6.6-17.1-12.9-22.3c-6.3-5.2-13.5-7.7-21.5-7.7c-6.7,0-12.8,1.9-18.4,5.8
		c-5.6,3.8-9.7,8.9-12.2,15.1c-3.3,7.9-5,16.8-5,26.5c0,9.6,1.2,18.3,3.6,26.2c2.4,7.9,6.2,13.8,11.4,17.8c5.2,4,11.8,6,20.1,6
		c6.7,0,12.9-1.5,18.5-4.4c5.6-2.9,11.5-8,17.7-15.2v9.2c-6,6.3-12.3,10.8-18.8,13.6c-6.5,2.8-14.1,4.2-22.8,4.2
		c-11.4,0-21.6-2.3-30.4-6.9c-8.9-4.6-15.7-11.2-20.5-19.7c-4.8-8.6-7.2-17.7-7.2-27.4c0-10.2,2.7-19.9,8-29.1
		c5.3-9.2,12.6-16.3,21.6-21.3c9.1-5.1,18.7-7.6,28.9-7.6c7.5,0,15.5,1.6,23.8,4.9c4.8,1.9,7.9,2.8,9.2,2.8c1.7,0,3.1-0.6,4.4-1.9
		c1.2-1.2,2-3.2,2.4-5.9H1690.6z"/>
</g>
<path class="st0" d="M892.6,216.5c0,0,0.5,17-1.4,22.2c-5.3,13.8-36.5,46.5-36.5,46.5c0,0-31.2-32.7-36.5-46.5
	c-2-5.2-1.5-22.2-1.5-22.2s17.8-21.6,3.2-34.8c-14.6-13.2-25.6-7-26.3-6.4c-2-5.1,1.5-10.1,8.9-10.1c8.2,0,14.3,1.4,20.7,3.3
	c-5.4-2.4-13.3-5.2-21.1-5.2c-8.8,0-13.2,5.2-10.8,11.9c0,0-9.5-5.9-6.5-16.1c2.3-7.9,12.9-10.9,17.4-11.9c0,0,0,0,0,0
	c0.2,0,2.8,0.5,3.7,3.1l-0.4-3.6c3.5-0.3,9.1-0.2,9.1-0.2s-0.9,2.8-0.9,5.9c0,9.5,14.1,13.1,14.1,17.2c0,1.5-1.1,2.6-2.3,2.6
	c-2.8,0-7.1-2.2-8.6,0.4c4.1-0.9,7.6,1.6,10,1.6c3.5,0,3.1-4.9,1.7-6.8c-1.3-1.7-3.3-2.6-5-3.7c-2-1.3-5.3-3.8-6.5-7.7
	c1.1-1.2,4.3-4.2,8.3-4.2c3.5,0,3.8,3,7.4,3c4.3,0,4.9-3.3,6.4-4.4c1.5-1.1,6.2-2.7,6.2-2.7s-3.6-1.7-7.5-1.8c0.1,0-0.4,2.6-0.4,2.8
	c-0.4,1.5-1.2,3.2-2.7,4c-1.2,0.6-2.7,0.5-4,0c-0.8-0.4-1.5-1-1.9-1.7c-0.8-1.6,0-4.4,2.1-4c0.3,0,0.6,0.2,0.8,0.4
	c0.5,0.6-0.1,1.3-0.1,1.9c0,0.5,0.5,1.1,1,1.1c0.7,0,1-0.6,1.1-1.2c0.2-0.7,0.1-1.5-0.5-2c-0.3-0.4-0.8-0.6-1.3-0.7
	c-0.5-0.1-1.1-0.2-1.7-0.2c-2.3,0-4.7,0.7-6.7,1.8c-2.9,1.5-5.1,3.8-7.1,6.2c-0.1-0.5-0.1-0.9-0.1-1.4c0-11.6,9.6-24.5,30.5-24.5
	c19,0,25.6,14.2,25.6,14.2s5,3.4,8.1,8.2c3.2,4.9,6.7,16.4,12.1,18.1c5.3,1.6,10.8,0.3,11.1,0.3c-0.5,0.3-15.5,11.8-21.1,13.3
	L892.6,216.5z"/>
</svg>
